<?xml version="1.0" encoding="utf-8"?>
<!-- Generator: Adobe Illustrator 22.1.0, SVG Export Plug-In . SVG Version: 6.00 Build 0)  -->
<svg version="1.1" id="Calque_1" xmlns="http://www.w3.org/2000/svg" xmlns:xlink="http://www.w3.org/1999/xlink" x="0px" y="0px"
	 viewBox="0 0 100 100" style="enable-background:new 0 0 100 100;" xml:space="preserve">
<style type="text/css">
	.st0{fill:none;stroke:#4C5F6A;stroke-linecap:round;stroke-linejoin:round;stroke-miterlimit:10;}
	.st1{fill:#FFFFFF;stroke:#4C5F6A;stroke-linecap:round;stroke-linejoin:round;stroke-miterlimit:10;}
</style>
<g>
	<g>
		<path class="st0" d="M51.3,97.7c-2.7,0-4.8-2.2-4.8-4.8V8.4c0-2.7,2.2-4.8,4.8-4.8s4.8,2.2,4.8,4.8v84.5
			C56.1,95.6,54,97.7,51.3,97.7z"/>
		<polygon class="st1" points="2.9,30.6 13.8,20.5 51.3,20.5 88.9,37 94.4,52.1 86.1,58.1 51.3,42.1 14.2,41.2 		"/>
		<path class="st0" d="M81,33.1l8.4-5c0.7-0.3,1.3-0.8,1.5-1.6l4.4-11.4c0.4-1.2-0.1-2.6-1.2-3.2l-12.5-1.1
			c-0.7-0.4-2.9-0.5-3.6-0.1l-21.3,9.1"/>
	</g>
</g>
<line class="st0" x1="51.3" y1="21.1" x2="51.3" y2="40.9"/>
</svg>
