<?xml version="1.0" encoding="utf-8"?>
<!-- Generator: Adobe Illustrator 19.0.0, SVG Export Plug-In . SVG Version: 6.00 Build 0)  -->
<svg version="1.1" id="Calque_1" xmlns="http://www.w3.org/2000/svg" xmlns:xlink="http://www.w3.org/1999/xlink" x="0px" y="0px"
	 viewBox="0 0 283.5 283.5" style="enable-background:new 0 0 283.5 283.5;" xml:space="preserve">
<style type="text/css">
	.st0{fill:#C30045;}
</style>
<path class="st0" d="M0,141.5C-0.1,63.3,63.8-0.8,143.1,0c77,0.8,140.2,63.7,139.9,142.1C282.6,220,219.3,283.3,140.8,283
	C62.9,282.6,0,219.3,0,141.5z M164.1,200.4c0-0.6,0-1.1,0-1.6c0-16.3,0-32.6,0-48.9c0-0.7,0-1.5,0.1-2.2c0.2-4.2,1.1-8.2,4.1-11.5
	c3.1-3.4,7-5.3,11.7-4.6c4.3,0.7,7.1,3.6,8.9,7.4c1.6,3.3,1.9,6.8,1.9,10.3c0,16.5,0,33.1,0,49.6c0,0.5,0,0.9,0,1.4
	c11.2,0,22.2,0,33.3,0c0-0.5,0-1,0-1.4c0-15.6,0-31.3,0-46.9c0-4.5-0.2-9.1-0.7-13.6c-0.7-6.5-2.4-12.8-5.7-18.5
	c-4.2-7.3-10.3-12.1-18.7-13.3c-7.1-1-14.1-0.3-20.9,1.9c-4.6,1.5-8.5,3.9-11.6,7.6c-0.7,0.9-1.4,1.9-2.1,2.8c-0.1,0-0.1,0-0.2-0.1
	c0-4.2,0-8.4,0-12.6c-11.5,0-22.9,0-34.3,0c0,31.4,0,62.8,0,94.2C141.2,200.4,152.5,200.4,164.1,200.4z M70.8,200.5
	c0.5,0,0.9,0,1.2,0c10.9,0,21.9,0,32.8,0c1.1,0,1.3-0.3,1.3-1.3c0-30.6,0-61.1,0-91.7c0-0.4,0-0.8,0-1.2c-11.9,0-23.6,0-35.3,0
	C70.8,137.6,70.8,169,70.8,200.5z M70.7,79.1c0,7.1,4.2,12.8,11,14.7c3.7,1,7.4,0.9,11.1,0.1c6.6-1.5,10.8-6,11.9-12.6
	c1-5.9-1.8-12.1-7-15.1c-4.3-2.6-9-2.8-13.8-2.1C76,65.3,70.7,71.4,70.7,79.1z"/>
</svg>
