<?xml version="1.0" encoding="utf-8"?>
<!-- Generator: Adobe Illustrator 22.1.0, SVG Export Plug-In . SVG Version: 6.00 Build 0)  -->
<svg version="1.1" id="Calque_1" xmlns="http://www.w3.org/2000/svg" xmlns:xlink="http://www.w3.org/1999/xlink" x="0px" y="0px"
	 viewBox="0 0 100 100" style="enable-background:new 0 0 100 100;" xml:space="preserve">
<style type="text/css">
	.st0{fill:none;stroke:#4C5F6A;stroke-miterlimit:10;}
</style>
<path class="st0" d="M71.4,78.6L71.4,78.6c0,1.6-1.3,2.9-2.9,3L32,81.4c-1.6,0-2.9-1.3-2.9-2.9l-0.6-64.6c0-1.6,1.3-2.9,2.9-3
	l36.6,0.2c1.6,0,2.9,1.3,2.9,2.9L71.4,78.6z M76.1,60.3L75.8,5.6c0-2.2-1.7-3.9-3.9-3.9L27.5,2c-2.1,0-3.8,1.8-3.8,3.9l0.5,88.2
	c0,2.2,1.7,3.9,3.9,3.9l44.5-0.2c2.1,0,3.8-1.8,3.8-3.9L76.1,60.3 M50.2,93.2c-1.5,0-2.8-0.9-3.4-2.3c-0.6-1.4-0.3-3,0.8-4.1
	c1-1.1,2.6-1.4,4-0.8c1.4,0.6,2.3,1.9,2.3,3.5C53.9,91.5,52.3,93.2,50.2,93.2L50.2,93.2L50.2,93.2z"/>
</svg>
