<?xml version="1.0" encoding="utf-8"?>
<!-- Generator: Adobe Illustrator 22.1.0, SVG Export Plug-In . SVG Version: 6.00 Build 0)  -->
<svg version="1.1" id="Calque_1" xmlns="http://www.w3.org/2000/svg" xmlns:xlink="http://www.w3.org/1999/xlink" x="0px" y="0px"
	 viewBox="0 0 100 100" style="enable-background:new 0 0 100 100;" xml:space="preserve">
<style type="text/css">
	.st0{fill:none;stroke:#4C5F6A;stroke-linecap:round;stroke-linejoin:round;stroke-miterlimit:10;}
</style>
<g>
	<g>
		<g>
			<path class="st0" d="M54,74.3c0.6,0.8,1.5,1.8,1.5,3.2c0,0.1,0,0.1,0,0.2c-0.2,3.1-4.5,7.4-4.5,7.4s-4.4-4.2-4.5-7.4
				c0-0.1,0-0.1,0-0.2c0-1.3-0.3-2.3,0.3-3.1c-2.2,1.1-2.8,3.1-2.8,5.9c0,3.9,5.7,13.1,6.3,14.2l0.8,1.3l0.8-1.3
				c0.6-1,6.3-10.3,6.3-14.2c0-2.7-1.3-4.8-3.5-5.9"/>
			<path class="st0" d="M50.9,67.8c-2.1,0-4.2-0.1-6.3-0.4c-0.8-0.1-1.5-0.2-2.3-0.4c0.4,1.4,0.9,2.7,1.5,4l0.2,0.4l0.5,0.1
				c1.4,0.4,2.9,0.6,4.4,0.7c0.7,0.1,1.3,0.1,2,0.1c0.7,0,1.3-0.1,2-0.1c1.5-0.1,3-0.3,4.4-0.7l0.5-0.1L58,71c0.6-1.3,1.1-2.7,1.5-4
				c-0.8,0.1-1.5,0.3-2.3,0.4C55.1,67.6,53,67.8,50.9,67.8"/>
			<polyline class="st0" points="63.6,65.8 74.7,69.1 74.7,53.7 68.1,43.5 			"/>
			<polyline class="st0" points="33.3,43.7 27,53.8 27,69.2 34.5,66.9 38.2,65.8 			"/>
			<path class="st0" d="M61.3,17.1C57.6,10.3,53.5,5.9,52,4.6c-0.1-1.4-0.5-2.5-0.8-2.9c0,0-0.1-0.1-0.1-0.1l-0.2-0.2l-0.2,0.2
				c0,0-0.1,0.1-0.1,0.1c-0.4,0.4-0.7,1.5-0.8,2.9c-1.5,1.4-5.6,5.6-9.3,12.3c6.9-1.2,14-1.2,20.9,0"/>
			<path class="st0" d="M50.9,47.1c-5.3,0-9.6-4.3-9.6-9.6c0-5.3,4.3-9.6,9.6-9.6c5.3,0,9.6,4.3,9.6,9.6
				C60.4,42.8,56.1,47.1,50.9,47.1 M40.1,16.7c-0.2,0.4-1,2-1.2,2.4C35.5,26.3,33.7,34,33.8,42c0,8,1.7,15.7,5.2,23l0.2,0.4l0.4,0.1
				c3.7,0.9,7.5,1.4,11.4,1.4l0,0c3.8,0,7.7-0.5,11.4-1.4l0.4-0.1l0.2-0.4c3.4-7.3,5.1-15.1,5.1-23c0-8-3.1-17.6-6.5-24.8"/>
		</g>
	</g>
</g>
</svg>
