<?xml version="1.0" encoding="utf-8"?>
<!-- Generator: Adobe Illustrator 22.1.0, SVG Export Plug-In . SVG Version: 6.00 Build 0)  -->
<svg version="1.1" id="Calque_1" xmlns="http://www.w3.org/2000/svg" xmlns:xlink="http://www.w3.org/1999/xlink" x="0px" y="0px"
	 viewBox="0 0 100 100" style="enable-background:new 0 0 100 100;" xml:space="preserve">
<style type="text/css">
	.st0{fill:#FFFFFF;stroke:#4C5F6A;stroke-linecap:round;stroke-linejoin:round;stroke-miterlimit:10;}
	.st1{fill:none;stroke:#4C5F6A;stroke-miterlimit:10;}
	.st2{fill:none;stroke:#4C5F6A;stroke-linecap:round;stroke-linejoin:round;stroke-miterlimit:10;}
</style>
<g>
	<g>
		<path class="st0" d="M72.1,34c0,0,9.2-32.9-22.1-32.9S27.8,34,27.8,34c-2.5,0.8-4.1,0.7-4.1,5.7s6.3,8.4,6.3,8.4
			c3.9,15.6,20,16.4,20,16.4s16.2-0.8,20-16.4c0,0,6.3-3.4,6.3-8.4S74.6,34.8,72.1,34z"/>
		<path class="st0" d="M27.8,34c0,0-1.3-14.3,12.1-21.8c0,0,13,7.7,28.8,6.5c0,0,3.8,8.4,3.4,15.2c0,0,3-10.4,0.4-17.8
			s-8.3-15-18.9-15S37.7,2.9,33.4,6.1S24.3,19.3,27.8,34z"/>
		<path class="st0" d="M66.2,63.7c0,0-4.8,13.3-16.3,13.3S33.7,63.7,33.7,63.7C10.2,71.4,7.6,81.3,7.6,81.3v17.6h42.4h42.4V81.3
			C92.3,81.3,89.7,71.4,66.2,63.7z"/>
	</g>
</g>
<g>
	<g>
		<path class="st1" d="M50,23L50,23L50,23c-7,0-9.2,5.4-9.2,8.7c0,3.3,4.1,11,4.4,11.5c0.3,0.5,0.6,1.8,0.6,2.5
			c0,0.7,0.7,1.3,1.5,1.3H50h0h2.6c0.8,0,1.5-0.6,1.5-1.3c0-0.7,0.4-2,0.6-2.5c0.3-0.5,4.4-8.2,4.4-11.5C59.2,28.3,57,23,50,23z"/>
	</g>
	<line class="st2" x1="47.2" y1="49.5" x2="52.8" y2="49.5"/>
	<line class="st2" x1="47.2" y1="51.8" x2="52.8" y2="51.8"/>
	<line class="st2" x1="48.8" y1="54.2" x2="51.2" y2="54.2"/>
</g>
<line class="st2" x1="53.9" y1="31.1" x2="51.6" y2="41.3"/>
<line class="st2" x1="47.8" y1="41.1" x2="45.8" y2="31.1"/>
</svg>
