<?xml version="1.0" encoding="utf-8"?>
<!-- Generator: Adobe Illustrator 19.0.0, SVG Export Plug-In . SVG Version: 6.00 Build 0)  -->
<svg version="1.1" id="Calque_1" xmlns="http://www.w3.org/2000/svg" xmlns:xlink="http://www.w3.org/1999/xlink" x="0px" y="0px"
	 viewBox="0 0 283.5 283.5" style="enable-background:new 0 0 283.5 283.5;" xml:space="preserve">
<style type="text/css">
	.st0{fill:#C30045;}
</style>
<g>
	<path class="st0" d="M141.7,0c78.1-0.2,141.6,63.2,141.9,141.4c0.2,78.4-63.3,142.1-141.7,142.2C63.6,283.7,0.1,220.3,0,141.9
		C-0.1,63.6,63.2,0.2,141.7,0z M221.2,208.5c0.1-1,0.2-1.8,0.2-2.5c0-17.7,0.1-35.5-0.1-53.2c0-4.7-0.5-9.5-1.5-14.1
		c-3.1-14.3-11-24.6-25.9-27.9c-15-3.3-28,0-37.3,13.2c-0.2,0.2-0.4,0.4-1.1,0.9c0-4.6,0-8.7,0-12.7c-10.9,0-21.3,0-31.8,0
		c0,32.2,0,64.2,0,96.2c10.7,0,21.2,0,31.9,0c0-1.3,0-2.4,0-3.5c0-17.1,0-34.2,0-51.3c0-6.3,2.5-11.4,7.5-15.2
		c9.2-7,21.8-2.9,24.9,8.2c1,3.7,1.4,7.7,1.4,11.6c0.2,15.6,0.1,31.1,0.1,46.7c0,1.2,0,2.4,0,3.7
		C200.2,208.5,210.5,208.5,221.2,208.5z M73.7,112.2c0,32.2,0,64.2,0,96.2c10.6,0,21.1,0,31.6,0c0-32.2,0-64.2,0-96.2
		C94.8,112.2,84.4,112.2,73.7,112.2z M89.5,98.8c8.9,0,15.7-4.7,17.6-12.1c2.3-8.9-2.4-17.6-11.1-20.3c-10-3.1-20.3,1.3-23.4,10
		C68.5,87.9,76.7,98.8,89.5,98.8z"/>
</g>
</svg>
