<?xml version="1.0" encoding="utf-8"?>
<!-- Generator: Adobe Illustrator 22.1.0, SVG Export Plug-In . SVG Version: 6.00 Build 0)  -->
<svg version="1.1" id="Calque_1" xmlns="http://www.w3.org/2000/svg" xmlns:xlink="http://www.w3.org/1999/xlink" x="0px" y="0px"
	 viewBox="0 0 100 100" style="enable-background:new 0 0 100 100;" xml:space="preserve">
<style type="text/css">
	.st0{fill:none;stroke:#4C5F6A;stroke-linecap:round;stroke-linejoin:round;stroke-miterlimit:10;}
</style>
<g>
	<path class="st0" d="M18.6,16.5c-0.2-0.1-1.2-1,0.6-1.8S50,3,51.8,3.2c1.8,0.1,31,11.5,31,11.5c1.8,0.4,0.9,1.3,0.7,1.4
		c0,0-28.2,12.9-32.6,12.8C46.2,28.7,18.6,16.5,18.6,16.5z"/>
	<line class="st0" x1="82.9" y1="47.4" x2="82.9" y2="16.3"/>
	<polyline class="st0" points="86.9,46.3 82.8,40.7 78.8,46.3 	"/>
	<path class="st0" d="M74,20.5v10.9c0,0.2-0.1,0.3-0.2,0.4c-0.5,0.3-13,6.8-23,6.8c-7.8,0-20.8-6.5-21.4-6.8
		c-0.2-0.1-0.3-0.2-0.3-0.4V21.2"/>
	<path class="st0" d="M74.2,32.7c1.3,3,1.9,6.2,1.9,9.5c0,13.5-10.9,24.4-24.4,24.4S27.3,55.7,27.3,42.2c0-3.7,0.8-7.2,2.4-10.6"/>
	<path class="st0" d="M70.1,58.9c15.3,6.9,24.2,21.7,24.2,38.5"/>
	<path class="st0" d="M8.6,97.5c0-16.9,9.4-32.1,24.9-39"/>
	<line class="st0" x1="93.7" y1="97.7" x2="8.9" y2="97.7"/>
	<path class="st0" d="M29.9,60.9l25.7,26.5c0.2,0.2,0.2,0.4,0,0.6l-3.9,4.8c-0.1,0.1-0.2,0.2-0.3,0.2c0,0,0,0,0,0
		c-0.1,0-0.2-0.1-0.3-0.1L24.2,65"/>
	<line class="st0" x1="73.9" y1="61.6" x2="52.2" y2="83.3"/>
	<line class="st0" x1="79.3" y1="65.6" x2="51.8" y2="92.8"/>
</g>
</svg>
