<svg version="1.1" id="svg_the_studio" xmlns="http://www.w3.org/2000/svg" xmlns:xlink="http://www.w3.org/1999/xlink" viewBox="0 0 1650 793.7" enable-background="new 0 0 1650 793.7" xml:space="preserve">
	<style type="text/css">
	path{fill:#C31348;}
</style>
<g id="Titre_Logo">
<path class="lettre" id="lettre4" d="M982,293.7c21,1.2,39.9,9.2,54.7,25.9c5.7,6.5,5.8,13.4,0.8,18.2c-5.4,5.2-13,4.8-19.1-1.5
c-13.9-14.4-30.1-21.2-50-15.8c-15.5,4.2-24.2,18.4-20.6,32.5c1.7,6.9,6.3,11.5,11.9,15.3c10.1,6.8,21.6,10.4,32.8,14.9
c9.9,3.9,19.5,8.3,28.7,13.8c34.2,20.6,34.3,74.7-4.8,93.9c-26.8,13.2-53.4,12.1-79.3-3.2c-5.4-3.2-10-7.5-13.5-12.7
c-4.1-6.1-3.1-12.9,2.3-17.2c5.6-4.3,12.2-4,17,1.8c16,19.3,46,17.9,61.5,9.5c21-11.4,22.8-36.7,3.6-50.9
c-7.3-5.4-15.7-8.8-24.1-12.1c-13.4-5.3-27-10-39.4-17.7c-29.1-18.1-26.6-56.4-10.6-74.2C946.5,300.1,962.6,294.4,982,293.7z"/>
<path class="lettre" id="lettre2" d="M696.5,358.3c27.8-18.8,58.1-5.7,70.8,12.4c6.9,9.9,10,20.9,10,32.8c0.1,26.3,0.1,52.7,0,79
c-0.1,11.3-7.4,17.2-16.9,14c-6-2.1-8.1-6.7-8.1-12.7c0-17.3,0-34.6,0-51.9c0-10,0.1-20.1,0-30.1c-0.1-15.7-12.3-28-27.8-28.2
c-15.4-0.1-27.9,12.1-28,27.8c-0.2,26.9,0,53.9,0,80.8c0,8.7-2.6,12.7-9,14.4c-8.6,2.4-15.7-3-15.8-12.1c0-58.5,0-117,0-175.5
c0-8,4.5-12.7,11.9-12.9c7.2-0.2,12.5,4.5,12.7,12.3c0.3,13.9,0.1,27.7,0.1,41.6C696.5,352.6,696.5,354.9,696.5,358.3z"/>
<path class="lettre" id="lettre6" d="M1249.6,406.2c0-13.7,0-27.3,0-41c0-8.9,4.3-13.6,12.4-13.6c8,0,12.5,4.7,12.5,13.6
c0.1,27.3,0.2,54.6,0,81.9c-0.3,29.5-24,52.9-53,52.8c-29.3-0.1-52.7-23.9-52.7-53.7c0-27.1,0-54.2,0-81.3c0-9.2,5.1-14,13.9-13.3
c7.1,0.6,10.9,5.3,11,13.9c0,27.3-0.2,54.6,0.1,81.9c0.2,21.8,24,34.8,42.5,23.3c8.8-5.5,13.2-13.7,13.3-24.2
C1249.6,433.1,1249.6,419.6,1249.6,406.2z"/>
<path class="lettre" id="lettre5" d="M1076,420.9c0-13.3-0.1-26.5,0.1-39.8c0.1-3.8-0.8-5.5-5-5.1c-4.4,0.3-8.8,0.2-13.3,0
c-6.9-0.4-11.3-5.4-11.2-12.4c0.1-7.1,4.5-11.8,11.5-12c4.4-0.2,8.9-0.3,13.3,0c3.9,0.3,4.8-1.3,4.6-4.8c-0.2-6.8-0.2-13.7,0-20.5
c0.2-8.6,5.1-13.5,13-13.3c7.6,0.2,11.9,5,11.9,13.6c0,6,0.5,12.1-0.1,18.1c-0.6,6.1,1.8,7.3,7.4,7.1c10.2-0.5,20.5-0.2,30.7-0.1
c7.9,0.1,12.6,4.7,12.7,12.1c0.1,7.5-4.6,12.3-12.5,12.4c-10.8,0.1-21.7,0.3-32.5-0.1c-4.4-0.1-5.8,1-5.7,5.6
c0.2,25.1,0.1,50.2,0.1,75.4c0,14.2,11.2,21.8,24.6,16.6c3.3-1.3,6.3-3.5,9.4-5.3c6.5-3.8,13.2-2.7,17.1,2.9
c4.2,6.1,3.1,12.8-2.8,17.5c-20.9,16.8-51,14.3-65.6-5.4c-5.4-7.2-7.5-15.5-7.5-24.3C1075.9,446.3,1076,433.6,1076,420.9z"/>
<path class="lettre" id="lettre1" d="M602,420.3c0,12.3,0,24.5,0,36.8c0,13.7,10.4,21.1,23.6,16.9c3.9-1.2,7.1-3.7,10.5-5.7
c6.4-3.8,13.2-2.6,17.1,2.9c4.2,6.1,3.4,11.9-2.5,17.1c-18.4,16.1-47.1,15.3-63.3-1.8c-6.8-7.2-10-15.8-9.9-25.7
c0.1-26.1-0.1-52.3,0.1-78.4c0-5-1.2-6.8-6.3-6.3c-4,0.4-8,0.2-12,0c-7.1-0.4-11.9-5.7-11.7-12.7c0.3-6.8,5-11.6,11.9-11.7
c4.6-0.1,9.3-0.2,13.9,0c3.1,0.1,4.2-0.9,4.2-4.1c-0.2-7.2-0.1-14.5,0-21.7c0.1-8,4.5-12.7,11.9-12.8c7.6-0.1,12.4,4.8,12.5,13
c0.1,6.6,0.4,13.3-0.1,19.9c-0.4,5.1,1.7,5.9,6.2,5.8c10.4-0.3,20.9-0.1,31.3-0.1c8.5,0,13.2,4.4,13.2,12.1
c0,7.7-4.8,12.3-13.1,12.4c-11.1,0.1-22.1,0.1-33.2,0c-3.4-0.1-4.5,1-4.5,4.4C602.1,393.7,602,407,602,420.3z"/>
<path class="lettre" id="lettre7" d="M1450.8,424.2c0,19.9,0.1,39.8,0,59.6c-0.1,10.7-9.5,16.7-18.6,12c-5.7-2.9-6.5-8.2-6.5-13.9
c0-25.1,0-50.2,0-75.3c0-13.7-0.1-27.3,0-41c0.1-8.9,4.1-13.7,11.4-14.2c8.7-0.5,13.6,4.3,13.7,13.6
C1450.9,384.9,1450.8,404.6,1450.8,424.2z"/>
<path class="lettre" id="lettre7" d="M1421.9,312.6c0-8.8,7.7-16.4,16.6-16.3c8.7,0.1,16,7.3,16.1,16.1c0.1,9.2-7,16.4-16.2,16.5
C1429.4,328.9,1421.9,321.5,1421.9,312.6z"/>
<path class="lettre" id="lettre6" d="M1401.5,310c0-8.7-4.7-13.8-12.5-13.7c-7.8,0.1-12,4.9-12,14c0,15.9,0,31.7,0,48.5
c-3.1-1.9-5.2-3.4-7.4-4.6c-31.2-16.9-72.5,8.2-73.3,44.6c-0.3,15.9-0.1,31.7-0.1,47.6c0,29.7,22.7,53,52.1,53.5
c29,0.5,53-22.9,53.1-52.5C1401.7,401.6,1401.6,355.8,1401.5,310z M1376.9,447c-0.6,16.9-13.2,28.4-29.2,27.9
c-15.6-0.6-26.9-12.8-26.9-29.6c0-7,0-14,0-21.1s0-14,0-21.1c0.1-16.4,11.7-29,27.1-29.5c15.7-0.5,28.5,11.5,29,28.2
C1377.4,416.9,1377.5,432,1376.9,447z"/>
<path class="lettre" id="lettre3" d="M904.3,398c-1.8-27.5-25.4-50.7-56.4-49c-26.7,1.5-48.8,24.5-48.9,52.3c-0.1,15.5,0,30.9,0.1,46.4
c0,3.8,0.4,7.6,1.4,11.3c7.6,28.6,37.6,46.1,67.3,39.3c12.1-2.8,22.7-8,30.1-18.4c5-7,2.8-14.9-4.8-18.6c-5.6-2.7-9.9-1.5-15.3,4.2
c-8.3,8.5-18.6,11-29.9,8.6c-11.6-2.5-19.7-9.5-23.3-21.2c-1.7-5.7-0.3-11.6-0.9-17.4c-0.3-3.5,1-4.4,4.3-4.3
c10.4,0.2,20.9,0.1,31.3,0.1c10.4,0,20.9,0.1,31.3-0.1c8.8-0.2,13.7-5.2,13.8-14C904.6,410.9,904.7,404.4,904.3,398z M874.6,406.3
c-7.8-0.3-15.7-0.1-23.5-0.1c-7.4,0-14.9-0.3-22.3,0.1c-4.4,0.2-5.3-1.4-5.1-5.4c0.4-15,13-27.3,28.1-27.2
c15.3,0.1,27.5,12.4,27.7,27.5C879.5,405,878.7,406.5,874.6,406.3z"/>
<path class="lettre" id="lettre9" d="M1577.6,426.4c0-9.7,0-17.3,0-24.9c0-28.1-22.1-51.7-49.2-52.3c-30.9-0.8-54.9,20.3-55.9,49.8
c-0.6,16.8-0.5,33.8,0,50.6c0.9,27.3,21.4,47.7,49.8,50.2c24.3,2.2,48.3-15.8,54-40.6C1579,447.7,1576.8,436,1577.6,426.4z
 M1553.1,424.5c0,7.4,0.1,14.8,0,22.3c-0.2,15.1-11.3,27.1-25.9,28.1c-15.3,1-28.2-9-29.7-24.5c-1.6-17.4-1.6-34.9,0-52.3
c1.3-14.6,14.3-25,28.7-24.4c14.6,0.6,26.3,12.4,26.8,27.3C1553.3,408.8,1553.1,416.6,1553.1,424.5z"/>
</g>
<g id="Logo">
<path id="rect_left" d="M141.8,138.3h129v361.3H88.1V191.9C88.1,162.4,112.3,138.3,141.8,138.3z"/>
<path id="rect_right" d="M447.4,655.4h-124V294h178.1v307.3C501.4,631.1,477.1,655.4,447.4,655.4z"/>
</g>
</svg>